# xmcd
#
# Track frame offsets: 
#        150
#        6487
#        20957
#        41733
#        60279
#        73375
#        92747
#        105600
#        122210
#        134339
#        147819
#        164309
#
# Disc length: 2396 seconds
#
# Revision: 0
# Processed by: cddbd v1.5.2PL0 Copyright (c) Steve Scherf et al.
# Submitted via: ExactAudioCopy v0.99pb3
#
DISCID=af095a0c
DTITLE=Various Artist - Thee Humbug #3 - The CD
DYEAR=2005
DGENRE=Thee Sheffield Phonographic Corporation
TTITLE0=Bromheads Jacket - Leslie Parlafitt
TTITLE1=Fury Of The Headteachers - Fables (demo)
TTITLE2=Smokers Die Younger - X Wants The Meat
TTITLE3=Corleone - This Is The Walk You Must Walk (demo)
TTITLE4=The Lodger - Unsatisfied
TTITLE5=Daybreak - Long Way Down
TTITLE6=Smokers Die Younger - Three Cigarettes In An Ashtray
TTITLE7=[Heart]Yeah!! - I Heart The 808 (demo)
TTITLE8=Exotica Interlude With "Wimoweh"
TTITLE9=O Fracas - Zeroes And Ones
TTITLE10=Monkey Swallows The Universe - Martin (demo)
TTITLE11=Milburn - Let Me Go (demo)
EXTD=
EXTT0=
EXTT1=
EXTT2=
EXTT3=
EXTT4=
EXTT5=
EXTT6=
EXTT7=
EXTT8=
EXTT9=
EXTT10=
EXTT11=
PLAYORDER=
